<mxfile host="app.diagrams.net" agent="Mozilla/5.0 (Windows NT 10.0; Win64; x64) AppleWebKit/537.36 (KHTML, like Gecko) Chrome/134.0.0.0 Safari/537.36" version="25.0.1">
  <diagram name="Page-1" id="e7e014a7-5840-1c2e-5031-d8a46d1fe8dd">
    <mxGraphModel dx="598" dy="460" grid="1" gridSize="10" guides="1" tooltips="1" connect="1" arrows="1" fold="1" page="1" pageScale="1" pageWidth="1169" pageHeight="826" background="none" math="0" shadow="0">
      <root>
        <mxCell id="0" />
        <mxCell id="1" parent="0" />
        <mxCell id="2" value="Người quản lý" style="swimlane;whiteSpace=wrap" parent="1" vertex="1">
          <mxGeometry x="164.5" y="128" width="280" height="570" as="geometry" />
        </mxCell>
        <mxCell id="5" value="" style="ellipse;shape=startState;fillColor=#000000;strokeColor=#ff0000;" parent="2" vertex="1">
          <mxGeometry x="100" y="40" width="30" height="30" as="geometry" />
        </mxCell>
        <mxCell id="6" value="" style="edgeStyle=elbowEdgeStyle;elbow=horizontal;verticalAlign=bottom;endArrow=open;endSize=8;strokeColor=#FF0000;endFill=1;rounded=0" parent="2" source="5" target="7" edge="1">
          <mxGeometry x="100" y="40" as="geometry">
            <mxPoint x="115" y="110" as="targetPoint" />
          </mxGeometry>
        </mxCell>
        <mxCell id="7" value="Nhấn vào kho hàng" style="" parent="2" vertex="1">
          <mxGeometry x="60" y="110" width="110" height="50" as="geometry" />
        </mxCell>
        <mxCell id="8" value="Chọn xem danh sách trong kho" style="" parent="2" vertex="1">
          <mxGeometry x="30" y="220" width="170" height="50" as="geometry" />
        </mxCell>
        <mxCell id="10" value="Thêm sửa xóa sản phẩm" style="" parent="2" vertex="1">
          <mxGeometry x="45.5" y="402" width="140" height="48" as="geometry" />
        </mxCell>
        <mxCell id="3" value="Hệ thôngs" style="swimlane;whiteSpace=wrap" parent="1" vertex="1">
          <mxGeometry x="445" y="128" width="280" height="570" as="geometry" />
        </mxCell>
        <mxCell id="15" value="Hiển thị giao diện kho hàng" style="" parent="3" vertex="1">
          <mxGeometry x="55.5" y="110" width="154.5" height="50" as="geometry" />
        </mxCell>
        <mxCell id="16" value="Hiển thị danh sách " style="" parent="3" vertex="1">
          <mxGeometry x="55.5" y="285" width="144.5" height="35" as="geometry" />
        </mxCell>
        <mxCell id="HKT_5eZxGzvOGbfoaO1Q-50" style="edgeStyle=orthogonalEdgeStyle;rounded=0;orthogonalLoop=1;jettySize=auto;html=1;exitX=0.5;exitY=1;exitDx=0;exitDy=0;entryX=0.5;entryY=0;entryDx=0;entryDy=0;" edge="1" parent="3" source="18" target="HKT_5eZxGzvOGbfoaO1Q-48">
          <mxGeometry relative="1" as="geometry" />
        </mxCell>
        <mxCell id="18" value="cập nhật trạng thái sản phẩm" style="" parent="3" vertex="1">
          <mxGeometry x="65" y="402" width="155" height="48" as="geometry" />
        </mxCell>
        <mxCell id="HKT_5eZxGzvOGbfoaO1Q-48" value="" style="ellipse;html=1;shape=endState;fillColor=#000000;strokeColor=#ff0000;" vertex="1" parent="3">
          <mxGeometry x="128" y="502" width="30" height="30" as="geometry" />
        </mxCell>
        <mxCell id="HKT_5eZxGzvOGbfoaO1Q-43" style="edgeStyle=orthogonalEdgeStyle;rounded=0;orthogonalLoop=1;jettySize=auto;html=1;entryX=1;entryY=0.5;entryDx=0;entryDy=0;exitX=0.5;exitY=1;exitDx=0;exitDy=0;" edge="1" parent="1" source="15" target="8">
          <mxGeometry relative="1" as="geometry">
            <Array as="points">
              <mxPoint x="580" y="373" />
            </Array>
          </mxGeometry>
        </mxCell>
        <mxCell id="HKT_5eZxGzvOGbfoaO1Q-45" style="edgeStyle=orthogonalEdgeStyle;rounded=0;orthogonalLoop=1;jettySize=auto;html=1;entryX=0.5;entryY=0;entryDx=0;entryDy=0;exitX=0.5;exitY=1;exitDx=0;exitDy=0;" edge="1" parent="1" source="16" target="10">
          <mxGeometry relative="1" as="geometry">
            <mxPoint x="530" y="460" as="sourcePoint" />
            <Array as="points">
              <mxPoint x="545" y="500" />
              <mxPoint x="280" y="500" />
            </Array>
          </mxGeometry>
        </mxCell>
        <mxCell id="HKT_5eZxGzvOGbfoaO1Q-46" style="edgeStyle=orthogonalEdgeStyle;rounded=0;orthogonalLoop=1;jettySize=auto;html=1;entryX=0;entryY=0.5;entryDx=0;entryDy=0;" edge="1" parent="1" source="10" target="18">
          <mxGeometry relative="1" as="geometry" />
        </mxCell>
        <mxCell id="HKT_5eZxGzvOGbfoaO1Q-41" style="edgeStyle=orthogonalEdgeStyle;rounded=0;orthogonalLoop=1;jettySize=auto;html=1;entryX=0;entryY=0.5;entryDx=0;entryDy=0;" edge="1" parent="1" source="7" target="15">
          <mxGeometry relative="1" as="geometry">
            <mxPoint x="460" y="263" as="targetPoint" />
          </mxGeometry>
        </mxCell>
        <mxCell id="HKT_5eZxGzvOGbfoaO1Q-52" style="edgeStyle=orthogonalEdgeStyle;rounded=0;orthogonalLoop=1;jettySize=auto;html=1;exitX=0.5;exitY=1;exitDx=0;exitDy=0;entryX=0;entryY=0.5;entryDx=0;entryDy=0;" edge="1" parent="1" source="8" target="16">
          <mxGeometry relative="1" as="geometry" />
        </mxCell>
      </root>
    </mxGraphModel>
  </diagram>
</mxfile>
